<svg width="44" height="44" viewBox="0 0 44 44" fill="none" xmlns="http://www.w3.org/2000/svg">
<rect width="44" height="44" rx="10" fill="url(#paint0_linear_2432_6083)"/>
<rect x="1" y="1" width="42" height="42" rx="9" stroke="url(#paint1_linear_2432_6083)" stroke-opacity="0.1" stroke-width="2" style="mix-blend-mode:overlay"/>
<path d="M16.3477 21.6543C16.3477 21.9619 16.4619 22.2256 16.708 22.4541L23.5459 29.1514C23.7393 29.3447 23.9854 29.4502 24.2754 29.4502C24.8555 29.4502 25.3213 28.9932 25.3213 28.4043C25.3213 28.1143 25.1982 27.8594 25.0049 27.6572L18.8438 21.6543L25.0049 15.6514C25.1982 15.4492 25.3213 15.1855 25.3213 14.9043C25.3213 14.3154 24.8555 13.8584 24.2754 13.8584C23.9854 13.8584 23.7393 13.9639 23.5459 14.1572L16.708 20.8457C16.4619 21.083 16.3477 21.3467 16.3477 21.6543Z" fill="#FBFBFF"/>
<defs>
<linearGradient id="paint0_linear_2432_6083" x1="42.1345" y1="-59.5" x2="22.9737" y2="100.24" gradientUnits="userSpaceOnUse">
<stop stop-color="#37201F"/>
<stop offset="0.755402" stop-color="#813936" stop-opacity="0.9"/>
<stop offset="1" stop-color="#783532"/>
</linearGradient>
<linearGradient id="paint1_linear_2432_6083" x1="42.7778" y1="-86.5" x2="38.9918" y2="-86.4021" gradientUnits="userSpaceOnUse">
<stop stop-color="#37201F"/>
<stop offset="1" stop-color="#782F2F"/>
</linearGradient>
</defs>
</svg>
