<svg width="44" height="44" viewBox="0 0 44 44" fill="none" xmlns="http://www.w3.org/2000/svg">
<rect width="44" height="43.9967" rx="10" fill="url(#paint0_linear_2455_28)"/>
<rect x="1" y="1" width="42" height="41.9967" rx="9" stroke="url(#paint1_linear_2455_28)" stroke-opacity="0.1" stroke-width="2" style="mix-blend-mode:overlay"/>
<path d="M31.725 30.3109L28.015 26.6309C29.4551 24.8353 30.1525 22.5562 29.9639 20.2622C29.7752 17.9682 28.7147 15.8337 27.0006 14.2975C25.2864 12.7614 23.0488 11.9404 20.748 12.0034C18.4471 12.0663 16.2578 13.0085 14.6302 14.636C13.0026 16.2636 12.0605 18.4529 11.9975 20.7538C11.9346 23.0547 12.7555 25.2923 14.2917 27.0064C15.8278 28.7206 17.9623 29.781 20.2563 29.9697C22.5503 30.1584 24.8295 29.461 26.625 28.0209L30.305 31.7009C30.398 31.7946 30.5086 31.869 30.6305 31.9198C30.7523 31.9706 30.883 31.9967 31.015 31.9967C31.1471 31.9967 31.2778 31.9706 31.3996 31.9198C31.5215 31.869 31.6321 31.7946 31.725 31.7009C31.9053 31.5144 32.006 31.2652 32.006 31.0059C32.006 30.7466 31.9053 30.4974 31.725 30.3109ZM21.015 28.0209C19.6306 28.0209 18.2772 27.6104 17.126 26.8412C15.9749 26.072 15.0777 24.9788 14.5479 23.6997C14.0181 22.4206 13.8794 21.0131 14.1495 19.6553C14.4196 18.2974 15.0863 17.0501 16.0653 16.0712C17.0443 15.0922 18.2915 14.4255 19.6494 14.1554C21.0073 13.8853 22.4147 14.0239 23.6938 14.5537C24.9729 15.0836 26.0662 15.9808 26.8353 17.1319C27.6045 18.2831 28.015 19.6364 28.015 21.0209C28.015 22.8774 27.2775 24.6579 25.9648 25.9706C24.652 27.2834 22.8716 28.0209 21.015 28.0209Z" fill="#FAFEFF"/>
<path d="M27.625 26.3181L27.3435 26.669L27.6629 26.9859L31.3685 30.6615C31.4568 30.7544 31.506 30.8777 31.506 31.0059C31.506 31.1345 31.4565 31.2581 31.3678 31.3511C31.3218 31.3969 31.2673 31.4333 31.2073 31.4582C31.1464 31.4836 31.081 31.4967 31.015 31.4967C30.949 31.4967 30.8837 31.4836 30.8228 31.4582C30.7618 31.4329 30.7065 31.3957 30.66 31.3488L30.6586 31.3473L26.9786 27.6673L26.6618 27.3505L26.3122 27.6309C24.6164 28.9909 22.4639 29.6496 20.2973 29.4714C18.1308 29.2932 16.1148 28.2917 14.664 26.6727C13.2132 25.0538 12.4379 22.9406 12.4973 20.7675C12.5568 18.5944 13.4466 16.5268 14.9837 14.9896C16.5209 13.4524 18.5886 12.5626 20.7616 12.5032C22.9347 12.4437 25.048 13.2191 26.6669 14.6699C28.2858 16.1207 29.2873 18.1366 29.4655 20.3032C29.6437 22.4697 28.9851 24.6222 27.625 26.3181ZM16.8483 27.2569C18.0816 28.081 19.5317 28.5209 21.015 28.5209C23.0042 28.5209 24.9118 27.7307 26.3183 26.3242C27.7249 24.9177 28.515 23.01 28.515 21.0209C28.515 19.5375 28.0752 18.0875 27.2511 16.8541C26.427 15.6208 25.2556 14.6595 23.8852 14.0918C22.5147 13.5241 21.0067 13.3756 19.5519 13.665C18.097 13.9544 16.7606 14.6687 15.7117 15.7176C14.6628 16.7665 13.9485 18.1029 13.6592 19.5577C13.3698 21.0126 13.5183 22.5206 14.0859 23.891C14.6536 25.2615 15.6149 26.4328 16.8483 27.2569Z" stroke="url(#paint2_linear_2455_28)" stroke-opacity="0.1" style="mix-blend-mode:overlay"/>
<defs>
<linearGradient id="paint0_linear_2455_28" x1="42.1345" y1="-59.4955" x2="22.9765" y2="100.233" gradientUnits="userSpaceOnUse">
<stop stop-color="#37201F"/>
<stop offset="0.755402" stop-color="#813936" stop-opacity="0.9"/>
<stop offset="1" stop-color="#783532"/>
</linearGradient>
<linearGradient id="paint1_linear_2455_28" x1="42.7778" y1="-86.4935" x2="38.9918" y2="-86.3956" gradientUnits="userSpaceOnUse">
<stop stop-color="#37201F"/>
<stop offset="1" stop-color="#782F2F"/>
</linearGradient>
<linearGradient id="paint2_linear_2455_28" x1="31.4501" y1="-27.3117" x2="29.7282" y2="-27.2671" gradientUnits="userSpaceOnUse">
<stop stop-color="#37201F"/>
<stop offset="1" stop-color="#782F2F"/>
</linearGradient>
</defs>
</svg>
